<svg width="512" height="512" viewBox="0 0 512 512" xmlns="http://www.w3.org/2000/svg" role="img" aria-labelledby="title desc">
  <title id="title">Forever Lotus Icon</title>
  <desc id="desc">Golden lotus symbol on deep indigo background.</desc>
  <defs>
    <linearGradient id="bg" x1="0" x2="1" y1="0" y2="1">
      <stop offset="0%" stop-color="#0f0c1f"/>
      <stop offset="100%" stop-color="#191331"/>
    </linearGradient>
    <linearGradient id="gold" x1="0" x2="1" y1="0" y2="1">
      <stop offset="0%" stop-color="#e5c96b"/>
      <stop offset="100%" stop-color="#b0892f"/>
    </linearGradient>
  </defs>
  <rect width="512" height="512" rx="96" fill="url(#bg)"/>
  <g fill="none" stroke="url(#gold)" stroke-width="16" stroke-linecap="round" stroke-linejoin="round" transform="translate(64 68)">
    <path d="M192 292c-40-2-80-20-112-54 24-66 72-112 112-132 40 20 88 66 112 132-32 34-72 52-112 54z"/>
    <path d="M192 292c-26-2-52-14-74-36 16-44 46-76 74-92 28 16 58 48 74 92-22 22-48 34-74 36z"/>
    <path d="M192 292v74"/>
    <path d="M134 216c-36-12-64-40-86-76 36-8 74-4 108 16"/>
    <path d="M250 216c34-12 62-40 84-76-36-8-74-4-108 16"/>
  </g>
</svg>
